<svg version="1.2" xmlns="http://www.w3.org/2000/svg" viewBox="0 0 16 10" width="16" height="10">
	<title>Sidebar</title>
	<style>
		.s0 { fill: #ffffff } 
	</style>
	<g id="Sidebar">
		<g id="6">
			<path id="Activity 1" class="s0" d="m6 10c-0.3 0-0.6-0.1-0.8-0.4l-2.2-2.9-1.2 1.9c-0.3 0.4-0.9 0.5-1.4 0.2-0.4-0.3-0.5-0.9-0.2-1.4l2-3c0.1-0.2 0.4-0.4 0.8-0.4 0.3 0 0.6 0.1 0.8 0.4l2 2.7 2.3-4.5c0.2-0.4 0.5-0.6 0.8-0.6 0.4 0 0.7 0.1 0.9 0.4l2 2.7 2.3-4.5c0.3-0.5 0.9-0.7 1.3-0.5 0.5 0.3 0.7 0.9 0.5 1.3l-3 6c-0.2 0.4-0.5 0.6-0.8 0.6-0.4 0-0.7-0.1-0.9-0.4l-2-2.7-2.3 4.5c-0.2 0.4-0.5 0.6-0.8 0.6q-0.1 0-0.1 0z"/>
		</g>
	</g>
</svg>