<svg version="1.2" xmlns="http://www.w3.org/2000/svg" viewBox="0 0 17 16" width="17" height="16">
	<title>Sidebar</title>
	<style>
		.s0 { opacity: .5;fill: #ffffff } 
	</style>
	<g id="Sidebar">
		<g id="4">
			<path id="Calendar" fill-rule="evenodd" class="s0" d="m17 15c0 0.6-0.4 1-1 1h-14c-0.6 0-1-0.4-1-1v-14c0-0.6 0.4-1 1-1h14c0.6 0 1 0.4 1 1zm-2-1.5v-9c0-0.3-0.2-0.5-0.5-0.5h-11c-0.3 0-0.5 0.2-0.5 0.5v9c0 0.3 0.2 0.5 0.5 0.5h11c0.3 0 0.5-0.2 0.5-0.5zm-3-3v1c0 0.3-0.2 0.5-0.5 0.5h-5c-0.3 0-0.5-0.2-0.5-0.5v-1c0-0.3 0.2-0.5 0.5-0.5h1.5v-2h-1.5c-0.3 0-0.5-0.2-0.5-0.5v-1c0-0.3 0.2-0.5 0.5-0.5h3c0.3 0 0.5 0.2 0.5 0.5v3.5h1.5c0.3 0 0.5 0.2 0.5 0.5z"/>
		</g>
	</g>
</svg>