<svg version="1.2" xmlns="http://www.w3.org/2000/svg" viewBox="0 0 16 16" width="16" height="16">
	<title>Sidebar</title>
	<style>
		.s0 { opacity: .5;fill: #ffffff } 
	</style>
	<g id="Sidebar">
		<g id="2">
			<path id="Clock" fill-rule="evenodd" class="s0" d="m16 8c0 4.4-3.6 8-8 8-4.4 0-8-3.6-8-8 0-4.4 3.6-8 8-8 4.4 0 8 3.6 8 8zm-2 0c0-3.3-2.7-6-6-6-3.3 0-6 2.7-6 6 0 3.3 2.7 6 6 6 3.3 0 6-2.7 6-6zm-3 1c0 0.6-0.4 1-1 1h-3c-0.6 0-1-0.4-1-1v-3c0-0.6 0.4-1 1-1 0.6 0 1 0.4 1 1v1.5c0 0.3 0.2 0.5 0.5 0.5h1.5c0.6 0 1 0.4 1 1z"/>
		</g>
	</g>
</svg>