<svg version="1.2" xmlns="http://www.w3.org/2000/svg" viewBox="0 0 16 15" width="16" height="15">
	<title>Sidebar</title>
	<style>
		.s0 { fill: #ffffff } 
	</style>
	<g id="Sidebar">
		<g id="1">
			<path id="Dashboard" fill-rule="evenodd" class="s0" d="m16 8.4c0 0.6-0.4 1-0.9 1-0.5 0-0.9-0.4-0.9-1 0-3.6-2.8-6.5-6.2-6.5-3.4 0-6.2 2.9-6.2 6.5 0 0.6-0.4 1-0.9 1-0.5 0-0.9-0.4-0.9-1 0-4.6 3.6-8.4 8-8.4 4.4 0 8 3.8 8 8.4zm-8 1c-1 0-1.8 0.8-1.8 1.8 0 1.1 0.8 1.9 1.8 1.9 1 0 1.8-0.8 1.8-1.9 0-1-0.8-1.8-1.8-1.8zm3.6 1.8c0 2.1-1.6 3.8-3.6 3.8-2 0-3.6-1.7-3.6-3.8 0-1.7 1.2-3.2 2.7-3.6v-2.9c0-0.5 0.4-1 0.9-1 0.5 0 0.9 0.5 0.9 1v2.9c1.5 0.4 2.7 1.9 2.7 3.6z"/>
		</g>
	</g>
</svg>