<svg version="1.2" xmlns="http://www.w3.org/2000/svg" viewBox="0 0 18 18" width="18" height="18">
	<title>Top</title>
	<style>
		.s0 { fill: #a1b1c2 } 
	</style>
	<g id="Top">
		<g id="Search">
			<path id="Search (and thou shall find)" fill-rule="evenodd" class="s0" d="m6.7 2.2c2.5 0 4.5 2.1 4.5 4.5 0 1-0.2 1.9-0.8 2.7l-0.4 0.6-0.7 0.4c-0.7 0.6-1.6 0.8-2.6 0.8-2.4 0-4.4-2-4.4-4.5 0-2.4 2-4.5 4.4-4.5m0-2.2c-3.7 0-6.7 3-6.7 6.7 0 3.8 3 6.8 6.7 6.8 1.5 0 2.8-0.5 4-1.3l5.4 5.5c0.2 0.2 0.5 0.3 0.8 0.3 0.3 0 0.5-0.1 0.8-0.3 0.4-0.5 0.4-1.2 0-1.6l-5.5-5.4c0.8-1.1 1.3-2.5 1.3-4 0-3.7-3-6.7-6.8-6.7z"/>
		</g>
	</g>
</svg>