<svg version="1.2" xmlns="http://www.w3.org/2000/svg" viewBox="0 0 16 14" width="16" height="14">
	<title>Sidebar</title>
	<style>
		.s0 { opacity: .5;fill: #ffffff } 
	</style>
	<g id="Sidebar">
		<g id="3">
			<path id="Box" fill-rule="evenodd" class="s0" d="m12.4 0.9c0-0.5-0.4-0.9-0.8-0.9h-7.2c-0.4 0-0.8 0.4-0.8 0.9l-3.6 6.1v6.1c0 0.5 0.4 0.9 0.9 0.9h14.2c0.5 0 0.9-0.4 0.9-0.9v-6.1zm-7.3 0.9h5.8l2.5 4.3h-3.2c-0.3 0-0.5 0.2-0.5 0.5v0.3c0 1-0.6 1.8-1.6 1.9-1 0.1-1.9-0.8-1.9-1.8v-0.4c0-0.3-0.2-0.5-0.5-0.5h-3.2zm8.7 10.5h-11.6c-0.2 0-0.4-0.1-0.4-0.4v-3.9h2.8c0.4 1.5 1.8 2.6 3.4 2.6 1.7 0 3.1-1.1 3.5-2.6h2.7v3.9c0 0.3-0.2 0.4-0.4 0.4z"/>
		</g>
	</g>
</svg>