<svg version="1.2" xmlns="http://www.w3.org/2000/svg" viewBox="0 0 16 16" width="16" height="16">
	<title>Sidebar</title>
	<style>
		.s0 { opacity: .5;fill: #ffffff } 
	</style>
	<g id="Sidebar">
		<g id="7">
			<path id="Cogwheel" fill-rule="evenodd" class="s0" d="m15.2 6.9l-1.4-0.3q-0.2-1-0.7-1.8l0.7-1c0.3-0.4 0.3-1-0.1-1.3l-0.2-0.2c-0.3-0.4-0.9-0.4-1.3-0.1l-1 0.7q-0.8-0.5-1.8-0.7l-0.3-1.4c0-0.4-0.5-0.8-0.9-0.8h-0.4c-0.4 0-0.9 0.4-0.9 0.8l-0.3 1.4q-1 0.2-1.8 0.7l-1-0.7c-0.4-0.3-1-0.3-1.3 0.1l-0.2 0.2c-0.4 0.3-0.4 0.9-0.1 1.3l0.7 1q-0.5 0.8-0.7 1.8l-1.4 0.3c-0.4 0-0.8 0.5-0.8 0.9v0.4c0 0.4 0.4 0.9 0.8 0.9l1.4 0.3q0.2 1 0.7 1.8l-0.7 1c-0.3 0.4-0.3 1 0.1 1.3l0.2 0.2c0.3 0.4 0.9 0.4 1.3 0.1l1-0.7q0.8 0.5 1.8 0.7l0.3 1.4c0 0.4 0.5 0.8 0.9 0.8h0.4c0.4 0 0.9-0.4 0.9-0.8l0.3-1.4q1-0.2 1.8-0.7l1 0.7c0.4 0.3 1 0.3 1.3-0.1l0.2-0.2c0.4-0.3 0.4-0.9 0.1-1.3l-0.7-1q0.5-0.8 0.7-1.8l1.4-0.3c0.4 0 0.8-0.5 0.8-0.9v-0.4c0-0.4-0.4-0.9-0.8-0.9zm-7.2 4.1c-1.7 0-3-1.3-3-3 0-1.7 1.3-3 3-3 1.7 0 3 1.3 3 3 0 1.7-1.3 3-3 3z"/>
		</g>
	</g>
</svg>