<svg version="1.2" xmlns="http://www.w3.org/2000/svg" viewBox="0 0 14 16" width="14" height="16">
	<title>3</title>
	<style>
		.s0 { fill: #7e8e9f } 
	</style>
	<g id="3">
		<g id="4">
			<g id="Convos">
				<path id="Simon says" fill-rule="evenodd" class="s0" d="m7 2c2.8 0 5 2.2 5 5 0 2.8-2.2 5-5 5q-0.1 0-0.2 0h-0.3l-0.4 0.1-3.3 1 0.4-1.6 0.2-0.9-0.5-0.8c-0.6-0.8-0.9-1.8-0.9-2.8 0-2.8 2.3-5 5-5m0-2c-3.8 0-7 3.1-7 7 0 1.5 0.5 2.8 1.3 4l-1.3 5 6.7-2q0.2 0 0.3 0c3.9 0 7-3.1 7-7 0-3.9-3.1-7-7-7z"/>
			</g>
		</g>
	</g>
</svg>